<?xml version="1.0" encoding="UTF-8" standalone="no"?>
<!-- Created with Inkscape (http://www.inkscape.org/) -->

<svg
   width="127.99999"
   height="127.99999"
   viewBox="0 0 33.866664 33.866664"
   version="1.1"
   id="svg1"
   xmlns="http://www.w3.org/2000/svg"
   xmlns:svg="http://www.w3.org/2000/svg">
  <defs
     id="defs1" />
  <rect
     style="fill:#0c0e0d;fill-opacity:1;stroke-width:0.264583"
     id="rect4"
     width="33.866665"
     height="33.866665"
     x="0"
     y="0"
     rx="2.1166666" />
  <g
     id="layer1">
    <path
       style="font-weight:bold;font-size:19.7556px;font-family:'Noto Sans KR';-inkscape-font-specification:'Noto Sans KR Bold';fill:#ffffff;stroke-width:0.238378"
       d="M 6.405265,21.932557 V 8.7435457 h 8.080717 V 10.950614 H 9.0395075 v 3.043617 h 4.6099235 v 2.207068 H 9.0395075 v 3.524189 h 5.6422615 v 2.207069 z m 10.946341,0 V 8.7435457 h 4.574327 c 0.93741,0 1.779894,0.1245927 2.527449,0.3737779 0.747555,0.2373191 1.340852,0.6526276 1.779893,1.2459254 0.439041,0.581431 0.658561,1.37645 0.658561,2.385057 0,0.973008 -0.21952,1.773961 -0.658561,2.402856 -0.439041,0.61703 -1.032338,1.073869 -1.779893,1.370518 -0.747555,0.284783 -1.590039,0.427175 -2.527449,0.427175 h -1.940084 v 4.983702 z m 2.634243,-7.066177 h 1.708698 c 0.854349,0 1.501043,-0.17799 1.940084,-0.533968 0.450907,-0.355979 0.676359,-0.884014 0.676359,-1.584106 0,-0.711958 -0.225452,-1.204395 -0.676359,-1.477312 C 23.19559,10.986211 22.548896,10.84382 21.694547,10.84382 h -1.708698 z m 4.520929,7.066177 -3.061416,-5.660062 1.851089,-1.637502 4.164951,7.297564 z"
       id="text3"
       aria-label="ER" />
    <path
       d="m 7.9586595,28.580546 q -0.4741335,0 -0.9652004,-0.186267 -0.4826002,-0.186266 -0.8382003,-0.474133 l 0.5672669,-0.7874 q 0.3132668,0.237066 0.6180669,0.381 0.3132668,0.135467 0.6519336,0.135467 0.3556001,0 0.5164668,-0.135467 0.1693334,-0.143934 0.1693334,-0.364067 0,-0.1778 -0.1439333,-0.296333 Q 8.3904597,26.726345 8.1618596,26.633212 7.9332595,26.531612 7.687726,26.438479 7.3913926,26.319945 7.0950591,26.150612 6.8071924,25.981279 6.612459,25.718812 6.4177255,25.447878 6.4177255,25.049945 q 0,-0.423334 0.2201335,-0.745067 0.2201334,-0.3302 0.6096002,-0.516467 0.3979335,-0.186267 0.9398004,-0.186267 0.5164669,0 0.9144003,0.1778 0.4064002,0.1778 0.694267,0.4064 L 9.2371267,24.939878 Q 8.9831266,24.753611 8.7291265,24.643545 8.483593,24.533478 8.2211263,24.533478 q -0.3302002,0 -0.4826002,0.127 -0.1524001,0.127 -0.1524001,0.3302 0,0.169334 0.1270001,0.287867 0.127,0.110067 0.3471334,0.194733 0.2201335,0.08467 0.4656669,0.1778 0.2370667,0.08467 0.4656668,0.2032 0.2370668,0.110067 0.4318002,0.270934 0.1947334,0.160867 0.3048001,0.397933 0.1185334,0.2286 0.1185334,0.558801 0,0.414866 -0.2201334,0.762 -0.2116668,0.338667 -0.6350003,0.541867 -0.4148668,0.194733 -1.0329337,0.194733 z m 4.8514085,0 q -0.651933,0 -1.176867,-0.296333 -0.524933,-0.296334 -0.829733,-0.846667 -0.304801,-0.5588 -0.304801,-1.346201 0,-0.7874 0.330201,-1.337734 0.338666,-0.5588 0.889,-0.855133 0.5588,-0.296334 1.202267,-0.296334 0.440267,0 0.778934,0.1524 0.338666,0.143934 0.601133,0.381 l -0.592667,0.787401 q -0.169333,-0.1524 -0.347133,-0.2286 -0.1778,-0.0762 -0.372534,-0.0762 -0.364066,0 -0.643467,0.186266 -0.270933,0.1778 -0.423333,0.508001 -0.143933,0.3302 -0.143933,0.778933 0,0.448734 0.143933,0.778934 0.1524,0.3302 0.414867,0.516467 0.270933,0.1778 0.6096,0.1778 0.254,0 0.491067,-0.110067 0.237067,-0.110067 0.4318,-0.270933 l 0.491067,0.821267 q -0.338667,0.296333 -0.753534,0.440267 -0.4064,0.135466 -0.795867,0.135466 z m 4.13174,0 q -0.592667,0 -1.1176,-0.296333 -0.516467,-0.296334 -0.838201,-0.846667 -0.321733,-0.5588 -0.321733,-1.346201 0,-0.7874 0.321733,-1.337734 0.321734,-0.5588 0.838201,-0.855133 0.524933,-0.296334 1.1176,-0.296334 0.448734,0 0.855134,0.169334 0.4064,0.169333 0.728133,0.491067 0.321734,0.313266 0.508001,0.778933 0.186266,0.4572 0.186266,1.049867 0,0.787401 -0.321733,1.346201 -0.321734,0.550333 -0.846667,0.846667 -0.516467,0.296333 -1.109134,0.296333 z m 0,-1.016 q 0.321734,0 0.541867,-0.1778 0.2286,-0.186267 0.338667,-0.516467 0.118533,-0.3302 0.118533,-0.778934 0,-0.448733 -0.118533,-0.778933 -0.110067,-0.330201 -0.338667,-0.508001 -0.220133,-0.186266 -0.541867,-0.186266 -0.321733,0 -0.550333,0.186266 -0.220134,0.1778 -0.338667,0.508001 -0.110067,0.3302 -0.110067,0.778933 0,0.448734 0.110067,0.778934 0.118533,0.3302 0.338667,0.516467 0.2286,0.1778 0.550333,0.1778 z m 3.31893,0.897467 v -4.741335 h 1.016001 l 0.09313,0.8382 h 0.0254 q 0.262467,-0.465667 0.618067,-0.7112 0.3556,-0.245534 0.728134,-0.245534 0.2032,0 0.321733,0.03387 0.127,0.0254 0.2286,0.06773 l -0.2032,1.075267 q -0.135467,-0.03387 -0.245533,-0.0508 -0.1016,-0.0254 -0.262467,-0.0254 -0.270934,0 -0.575734,0.211667 -0.296333,0.211667 -0.499533,0.719667 v 2.827868 z m 5.621869,0.118533 q -0.6604,0 -1.1938,-0.296333 -0.5334,-0.296334 -0.855134,-0.855134 -0.313267,-0.5588 -0.313267,-1.337734 0,-0.575733 0.1778,-1.032934 0.186267,-0.4572 0.499534,-0.778933 0.321733,-0.3302 0.7112,-0.499534 0.397934,-0.1778 0.821267,-0.1778 0.651934,0 1.092201,0.296334 0.440267,0.287866 0.6604,0.804333 0.2286,0.508001 0.2286,1.168401 0,0.169333 -0.01693,0.3302 -0.01693,0.1524 -0.04233,0.245533 H 24.73114 q 0.0508,0.381001 0.2286,0.643467 0.1778,0.262467 0.4572,0.397934 0.279401,0.127 0.635001,0.127 0.287867,0 0.541867,-0.0762 0.254,-0.08467 0.516467,-0.245534 l 0.423333,0.762001 q -0.347133,0.237066 -0.778934,0.381 -0.4318,0.143933 -0.872067,0.143933 z M 24.70574,25.608745 h 1.938868 q 0,-0.474133 -0.220134,-0.753534 -0.211667,-0.287866 -0.677333,-0.287866 -0.245534,0 -0.465667,0.118533 -0.220134,0.110067 -0.372534,0.347133 -0.1524,0.228601 -0.2032,0.575734 z"
       id="text4"
       style="font-weight:bold;font-size:8.46667px;font-family:'Noto Sans KR';-inkscape-font-specification:'Noto Sans KR Bold';fill:#0ed7a0;fill-opacity:1;stroke-width:0.264583"
       aria-label="score" />
  </g>
</svg>
